<svg id="레이어_1" data-name="레이어 1" xmlns="http://www.w3.org/2000/svg" xmlns:xlink="http://www.w3.org/1999/xlink" viewBox="0 0 515.06 88.9"><defs><style>.cls-1{fill:url(#linear-gradient);}.cls-2{fill:url(#linear-gradient-2);}.cls-3{fill:#272424;}</style><linearGradient id="linear-gradient" x1="369.22" y1="1144.37" x2="466.64" y2="1144.37" gradientTransform="translate(-928.24 185.56) rotate(-45)" gradientUnits="userSpaceOnUse"><stop offset="0" stop-color="#f18900"/><stop offset="1" stop-color="#fadd08"/></linearGradient><linearGradient id="linear-gradient-2" x1="-989.07" y1="1218.32" x2="-891.67" y2="1218.32" gradientTransform="translate(389.94 2242.72) rotate(135)" xlink:href="#linear-gradient"/></defs><title>cplatform</title><path class="cls-1" d="M197.24,700.26l-20.87,20.87a15.51,15.51,0,0,1-14,4.2l-.73-.19a15.36,15.36,0,0,1-5.5-2.66l0,0c-.23-.17-.46-.36-.68-.55l-.16-.14c-.23-.2-.46-.42-.69-.64h0c-.22-.23-.44-.46-.64-.69l-.14-.16c-.19-.22-.38-.45-.56-.68l0,0a15.5,15.5,0,0,1-2.65-5.5l-.19-.73a16.19,16.19,0,0,1-.32-3.12,15.36,15.36,0,0,1,4.52-10.91l20.87-20.86a8.87,8.87,0,0,0-12.54-12.54L142,686.78a32.9,32.9,0,0,0-9.71,23.44c0,.65,0,1.3.06,1.94h-.12l.33,2.3a32.71,32.71,0,0,0,2.53,9.11c.07.17.14.35.22.51l.33.7.35.7c.1.19.2.38.31.57l.5.88c.07.13.14.26.22.38.26.43.53.85.8,1.27,0,0,.07.09.09.13.26.37.51.74.78,1.1l.26.34c.22.3.45.59.68.87l.3.37.72.84c.1.11.19.22.29.32q.51.57,1.05,1.11h0c.36.36.73.71,1.1,1.05l.33.28c.28.25.55.49.84.73l.37.3c.28.23.57.46.87.68l.33.26,1.11.78a1.48,1.48,0,0,0,.13.08c.41.28.84.55,1.27.81.12.08.25.15.38.22.29.17.58.34.88.5s.38.21.57.3l.7.36.7.33c.16.08.34.15.51.22a33.08,33.08,0,0,0,9.1,2.53l2.31.33v-.12c.64,0,1.29.06,1.94.06a32.94,32.94,0,0,0,23.44-9.71l20.87-20.86a8.87,8.87,0,0,0-12.54-12.54Z" transform="translate(-132.26 -663.32)"/><path class="cls-2" d="M172.63,715.27l20.86-20.86a15.4,15.4,0,0,1,14-4.2l.74.18a15.36,15.36,0,0,1,5.5,2.66s0,0,0,0c.24.18.47.37.69.56l.16.13c.23.21.46.42.68.65h0c.22.22.43.45.64.69l.13.15c.2.23.38.45.56.69l0,0a15.36,15.36,0,0,1,2.66,5.5l.19.74a15.51,15.51,0,0,1-4.2,14l-20.87,20.87A8.86,8.86,0,1,0,207,749.62l20.86-20.86a33,33,0,0,0,9.71-23.45c0-.65,0-1.29-.06-1.94h.12l-.34-2.3a32.69,32.69,0,0,0-2.52-9.11l-.22-.51c-.11-.23-.22-.47-.34-.7s-.23-.46-.35-.69-.19-.38-.3-.57-.33-.59-.5-.89l-.22-.38c-.26-.43-.53-.85-.81-1.27l-.09-.13c-.25-.37-.51-.74-.77-1.1l-.26-.34-.68-.87-.3-.37-.73-.84-.28-.32c-.34-.37-.69-.74-1.05-1.1h0c-.36-.37-.73-.71-1.11-1l-.32-.29-.84-.73-.37-.3c-.28-.23-.57-.46-.87-.68l-.34-.25c-.36-.27-.73-.53-1.1-.78l-.13-.09c-.42-.28-.84-.55-1.27-.81l-.38-.22-.88-.5-.57-.3-.7-.35c-.23-.11-.46-.23-.7-.33l-.51-.23a32.69,32.69,0,0,0-9.11-2.52l-2.3-.34v.12c-.65,0-1.29-.06-1.94-.06A32.94,32.94,0,0,0,181,681.87l-20.87,20.87a8.86,8.86,0,0,0,12.54,12.53Z" transform="translate(-132.26 -663.32)"/><path class="cls-3" d="M328.74,707.72c0,2.64-1.49,5.1-4.83,5.1s-4.83-2.46-4.83-5.1,1.49-5,4.83-5S328.74,705.09,328.74,707.72Z" transform="translate(-132.26 -663.32)"/><path class="cls-3" d="M302.24,727.8a25.84,25.84,0,0,1-19.76,8.55,23.11,23.11,0,0,1-18.9-9,31.94,31.94,0,0,1,.08-39.2q7.32-9,19.29-9A23.28,23.28,0,0,1,301.54,688l-6.22,5.6A14,14,0,0,0,283,686.88a15.37,15.37,0,0,0-13.07,6.61,26,26,0,0,0,0,28.55,14.85,14.85,0,0,0,12.68,6.61,18.59,18.59,0,0,0,7.31-1.71,16.44,16.44,0,0,0,6.69-5.13Z" transform="translate(-132.26 -663.32)"/><path class="cls-3" d="M387,696.68A16,16,0,0,1,381.67,709a18.14,18.14,0,0,1-12.72,4.9H357.13V734.8h-8.48V679.18h19.21q8.55,0,13.85,5A16.49,16.49,0,0,1,387,696.68Zm-8.4-.07q0-9.81-10.66-9.8H357.13v19.44h11.12a10.76,10.76,0,0,0,7.55-2.57A9.14,9.14,0,0,0,378.6,696.61Z" transform="translate(-132.26 -663.32)"/><path class="cls-3" d="M402.94,734.8h-8.48V684.71h-3.11v-5.53h11.59Z" transform="translate(-132.26 -663.32)"/><path class="cls-3" d="M450.62,736.2h-8.48v-5.14a15.73,15.73,0,0,1-5.91,4,15.24,15.24,0,0,1-5.45,1.32,18.72,18.72,0,0,1-14.62-6.84,22.05,22.05,0,0,1-5.75-15.17A22.41,22.41,0,0,1,416.16,699a18.56,18.56,0,0,1,14.62-6.85,15,15,0,0,1,7.08,2,13.43,13.43,0,0,1,4.36,3.43v-5.76h8.4Zm-8.48-21.86a17.06,17.06,0,0,0-2.65-9.72,9.88,9.88,0,0,0-8.71-4.67,10.22,10.22,0,0,0-8.79,4.67,16.67,16.67,0,0,0-2.8,9.72,16.46,16.46,0,0,0,2.8,9.57,10.21,10.21,0,0,0,8.79,4.66,9.88,9.88,0,0,0,8.71-4.66A16.83,16.83,0,0,0,442.14,714.34Z" transform="translate(-132.26 -663.32)"/><path class="cls-3" d="M480.72,734.8h-6.54a9.81,9.81,0,0,1-7-2.8,9.3,9.3,0,0,1-2.92-7V701h-7.16v-7.62h7.16v-8.63h-3.11v-5.53h11.51v14.16h7.62V701h-7.62v23.65a2.56,2.56,0,0,0,.7,2.1,4.22,4.22,0,0,0,2.49.54h4.9Z" transform="translate(-132.26 -663.32)"/><path class="cls-3" d="M510.82,701h-9.57V734.8h-8.48V701h-7.54v-7.62h7.54v-4.51a8.86,8.86,0,0,1,3-7,11.37,11.37,0,0,1,7.81-2.65h6v7.63h-5.29q-3,0-3,2.64v3.89h9.57Z" transform="translate(-132.26 -663.32)"/><path class="cls-3" d="M554.22,714.11A21.79,21.79,0,0,1,548,729.55a19.37,19.37,0,0,1-29.08,0,22.35,22.35,0,0,1,0-30.88,19.35,19.35,0,0,1,29.08,0A21.76,21.76,0,0,1,554.22,714.11Zm-8.87,0a15.06,15.06,0,0,0-3.42-10,10.56,10.56,0,0,0-8.4-4.08,10.78,10.78,0,0,0-8.48,4.08,16,16,0,0,0,0,20,10.78,10.78,0,0,0,8.48,4.08,10.56,10.56,0,0,0,8.4-4.08A15,15,0,0,0,545.35,714.11Z" transform="translate(-132.26 -663.32)"/><path class="cls-3" d="M591.24,701.89a15.77,15.77,0,0,0-2.8-.23,22.23,22.23,0,0,0-11.43,3q-6.15,3.57-6.15,9.8V734.8h-8.47V698.86h-3.12v-5.52h11.59v6.14a17.89,17.89,0,0,1,7.39-4.7A27.66,27.66,0,0,1,588,693a21.68,21.68,0,0,1,3.27.23Z" transform="translate(-132.26 -663.32)"/><path class="cls-3" d="M647.32,734.8H639V709.36q0-9.11-6.61-9.1-7,0-7,9.26V734.8h-8.33V709.44q0-9.18-6.61-9.18a5.81,5.81,0,0,0-4.82,2.26,11.49,11.49,0,0,0-1.87,7V734.8h-8.47V698.86h-3.12v-5.52h11.59v2.72a10.16,10.16,0,0,1,8-3.58q7,0,10.27,5.37a15.36,15.36,0,0,1,11.59-5.37,12.65,12.65,0,0,1,9.33,3.74q4.37,4.42,4.36,12.67Z" transform="translate(-132.26 -663.32)"/></svg>