<svg id="레이어_1" data-name="레이어 1" xmlns="http://www.w3.org/2000/svg" xmlns:xlink="http://www.w3.org/1999/xlink" viewBox="0 0 105.36 88.9"><defs><style>.cls-1{fill:url(#linear-gradient);}.cls-2{fill:url(#linear-gradient-2);}</style><linearGradient id="linear-gradient" x1="490.85" y1="1256.1" x2="588.26" y2="1256.1" gradientTransform="translate(-928.24 185.56) rotate(-45)" gradientUnits="userSpaceOnUse"><stop offset="0" stop-color="#f18900"/><stop offset="1" stop-color="#fadd08"/></linearGradient><linearGradient id="linear-gradient-2" x1="-1110.7" y1="1106.6" x2="-1013.29" y2="1106.6" gradientTransform="translate(389.94 2242.72) rotate(135)" xlink:href="#linear-gradient"/></defs><title>cplatform</title><path class="cls-1" d="M362.24,693.26l-20.87,20.87a15.51,15.51,0,0,1-14,4.2l-.73-.19a15.36,15.36,0,0,1-5.5-2.66l0,0c-.23-.17-.46-.36-.68-.55l-.16-.14c-.23-.2-.46-.42-.69-.64h0c-.22-.23-.44-.46-.64-.69l-.14-.16c-.19-.22-.38-.45-.56-.68l0,0a15.5,15.5,0,0,1-2.65-5.5l-.19-.73a16.19,16.19,0,0,1-.32-3.12,15.36,15.36,0,0,1,4.52-10.91l20.87-20.86a8.87,8.87,0,0,0-12.54-12.54L307,679.78a32.9,32.9,0,0,0-9.71,23.44c0,.65,0,1.3.06,1.94h-.12l.33,2.3a32.71,32.71,0,0,0,2.53,9.11c.07.17.14.35.22.51l.33.7c.12.23.24.47.35.7s.2.38.31.57l.5.88c.07.13.14.26.22.38.26.43.53.85.8,1.27,0,0,.07.09.09.13.26.37.51.74.78,1.1l.26.34c.22.3.45.59.68.87l.3.37.72.84c.1.11.19.22.29.32q.51.57,1,1.11h0c.36.36.73.71,1.1,1.05l.33.28c.28.25.55.49.84.73l.37.3c.28.23.57.46.87.68l.33.26,1.11.78a1.48,1.48,0,0,0,.13.08c.41.28.84.55,1.27.81.12.08.25.15.38.22.29.17.58.34.88.5s.38.21.57.3l.7.36.7.33c.16.08.34.15.51.22a33.08,33.08,0,0,0,9.1,2.53l2.31.33v-.12c.64,0,1.29.06,1.94.06a32.94,32.94,0,0,0,23.44-9.71l20.87-20.86a8.87,8.87,0,0,0-12.54-12.54Z" transform="translate(-297.26 -656.32)"/><path class="cls-2" d="M337.63,708.27l20.86-20.86a15.4,15.4,0,0,1,14-4.2l.74.18a15.36,15.36,0,0,1,5.5,2.66s0,0,0,0c.24.18.47.37.69.56l.16.13c.23.21.46.42.68.65h0c.22.22.43.45.64.69l.13.15c.2.23.38.45.56.69l0,0a15.36,15.36,0,0,1,2.66,5.5l.19.74a15.51,15.51,0,0,1-4.2,14l-20.87,20.87A8.86,8.86,0,1,0,372,742.62l20.86-20.86a33,33,0,0,0,9.71-23.45c0-.65,0-1.29-.06-1.94h.12l-.34-2.3a32.69,32.69,0,0,0-2.52-9.11l-.22-.51c-.11-.23-.22-.47-.34-.7s-.23-.46-.35-.69-.19-.38-.3-.57-.33-.59-.5-.89l-.22-.38c-.26-.43-.53-.85-.81-1.27,0,0-.06-.08-.09-.13-.25-.37-.51-.74-.77-1.1l-.26-.34-.68-.87-.3-.37-.73-.84-.28-.32c-.34-.37-.69-.74-1-1.1h0c-.36-.37-.73-.71-1.11-1l-.32-.29-.84-.73-.37-.3c-.28-.23-.57-.46-.87-.68l-.34-.25c-.36-.27-.73-.53-1.1-.78l-.13-.09c-.42-.28-.84-.55-1.27-.81l-.38-.22-.88-.5-.57-.3-.7-.35c-.23-.11-.46-.23-.7-.33l-.51-.23a32.69,32.69,0,0,0-9.11-2.52l-2.3-.34v.12c-.65,0-1.29-.06-1.94-.06A32.94,32.94,0,0,0,346,674.87l-20.87,20.87a8.86,8.86,0,0,0,12.54,12.53Z" transform="translate(-297.26 -656.32)"/></svg>